<svg width="32" height="32" viewBox="0 0 32 32" fill="none" xmlns="http://www.w3.org/2000/svg">
  <!-- Hummingbird body -->
  <ellipse cx="16" cy="18" rx="3" ry="6" fill="#2563eb" />
  
  <!-- Hummingbird head -->
  <circle cx="16" cy="12" r="4" fill="#1d4ed8" />
  
  <!-- Beak -->
  <path d="M16 8 L18 6 L16 4 L14 6 Z" fill="#f59e0b" />
  
  <!-- Eye -->
  <circle cx="18" cy="11" r="1" fill="white" />
  <circle cx="18" cy="11" r="0.5" fill="black" />
  
  <!-- Wings -->
  <ellipse cx="13" cy="16" rx="2" ry="4" fill="#3b82f6" transform="rotate(-30 13 16)" />
  <ellipse cx="19" cy="16" rx="2" ry="4" fill="#3b82f6" transform="rotate(30 19 16)" />
  
  <!-- Tail -->
  <path d="M13 22 Q10 26 8 24 Q10 22 13 22" fill="#1e40af" />
  <path d="M16 22 Q14 26 12 24 Q14 22 16 22" fill="#1e40af" />
  <path d="M19 22 Q21 26 23 24 Q21 22 19 22" fill="#1e40af" />
</svg>
